<svg xmlns="http://www.w3.org/2000/svg" width="400" height="100" viewBox="0 0 400 100">
<rect width="400" height="100" fill="#000000" />
<g id="dots" fill="#FFFFFF">
<circle cx="60.0" cy="50.0" r="4" fill="#FFFFFF" fill-opacity="1.00"/>
<circle cx="110.0" cy="50.0" r="4" fill="#FFFFFF" fill-opacity="1.00"/>
<circle cx="160.0" cy="50.0" r="4" fill="#FFFFFF" fill-opacity="1.00"/>
<circle cx="210.0" cy="50.0" r="4" fill="#FFFFFF" fill-opacity="1.00"/>
<circle cx="260.0" cy="50.0" r="4" fill="#FFFFFF" fill-opacity="0.99"/>
<circle cx="310.0" cy="50.0" r="4" fill="#FFFFFF" fill-opacity="0.88"/>
<circle cx="360.0" cy="50.0" r="4" fill="#FFFFFF" fill-opacity="0.81"/>
</g>
<g id="ghosts">
<g transform="translate(240.0,36.8)">
<path d="M-10,6 Q-10,-8 0,-12 Q10,-8 10,6 V10 Q5,8 0,10 Q-5,8 -10,10 Z" fill="#FF6666" />
<circle cx="-4" cy="-4" r="3" fill="#fff"/><circle cx="4" cy="-4" r="3" fill="#fff"/>
</g>
<g transform="translate(262.0,32.5)">
<path d="M-10,6 Q-10,-8 0,-12 Q10,-8 10,6 V10 Q5,8 0,10 Q-5,8 -10,10 Z" fill="#66CCFF" />
<circle cx="-4" cy="-4" r="3" fill="#fff"/><circle cx="4" cy="-4" r="3" fill="#fff"/>
</g>
<g transform="translate(284.0,26.7)">
<path d="M-10,6 Q-10,-8 0,-12 Q10,-8 10,6 V10 Q5,8 0,10 Q-5,8 -10,10 Z" fill="#FFB86B" />
<circle cx="-4" cy="-4" r="3" fill="#fff"/><circle cx="4" cy="-4" r="3" fill="#fff"/>
</g>
<g transform="translate(306.0,37.3)">
<path d="M-10,6 Q-10,-8 0,-12 Q10,-8 10,6 V10 Q5,8 0,10 Q-5,8 -10,10 Z" fill="#BDBDFF" />
<circle cx="-4" cy="-4" r="3" fill="#fff"/><circle cx="4" cy="-4" r="3" fill="#fff"/>
</g>
</g>
<g id="pacman">
<path d="M 205.04,50.00 L 219.82,43.87 A 16,16 0 0,1 219.82,56.13 Z" fill="#FFDF00" stroke="none" />
<circle cx="211.04" cy="44.00" r="2" fill="#000" />

      <animateTransform href="#pacman" attributeName="transform" type="translate"
                        from="0 0" to="0 0" dur="0.0s" repeatCount="1"/>
    
</g>
<text x="10" y="92" fill="#888" font-family="monospace" font-size="10">Updated: 2025-10-30 13:04:17 UTC</text>
</svg>